<?xml version="1.0" encoding="UTF-8"?>
<svg xmlns="http://www.w3.org/2000/svg" xmlns:xlink="http://www.w3.org/1999/xlink" viewBox="0 0 16 16" width="16px" height="16px">
<g id="surface63865536">
<rect x="0" y="0" width="16" height="16" style="fill:rgb(0%,0%,0%);fill-opacity:1;stroke:none;"/>
<path style=" stroke:none;fill-rule:nonzero;fill:rgb(100%,100%,100%);fill-opacity:1;" d="M 7.964844 0.753906 C 6.101562 0.765625 4.347656 1.460938 2.988281 2.761719 C 1.550781 4.136719 0.75 6 0.75 8 C 0.75 9.585938 1.25 11.101562 2.210938 12.363281 C 2.335938 12.523438 2.574219 12.5625 2.738281 12.4375 C 2.898438 12.3125 2.9375 12.074219 2.8125 11.914062 C 1.949219 10.773438 1.5 9.425781 1.5 8 C 1.5 6.210938 2.210938 4.539062 3.511719 3.300781 C 4.8125 2.0625 6.511719 1.425781 8.3125 1.511719 C 11.648438 1.664062 14.363281 4.398438 14.5 7.738281 C 14.613281 10.476562 12.988281 13 10.449219 14.039062 C 10.261719 14.113281 10.164062 14.335938 10.238281 14.523438 C 10.300781 14.675781 10.4375 14.761719 10.585938 14.761719 C 10.636719 14.761719 10.6875 14.75 10.726562 14.738281 C 13.550781 13.574219 15.363281 10.75 15.25 7.699219 C 15.085938 3.976562 12.0625 0.925781 8.335938 0.761719 C 8.210938 0.757812 8.089844 0.753906 7.964844 0.753906 Z M 8 3.75 C 7.378906 3.75 6.875 4.253906 6.875 4.875 C 6.875 5.496094 7.378906 6 8 6 C 8.621094 6 9.125 5.496094 9.125 4.875 C 9.125 4.253906 8.621094 3.75 8 3.75 Z M 8 7.375 C 7.375 7.375 6.875 7.875 6.875 8.5 L 6.875 11.5 C 6.875 12.125 7.375 12.625 8 12.625 C 8.625 12.625 9.125 12.125 9.125 11.5 L 9.125 8.5 C 9.125 7.875 8.625 7.375 8 7.375 Z M 4.140625 13.324219 C 4.019531 13.324219 3.902344 13.378906 3.824219 13.488281 C 3.710938 13.664062 3.75 13.886719 3.925781 14.011719 C 4.324219 14.261719 4.738281 14.488281 5.164062 14.675781 C 5.210938 14.699219 5.261719 14.699219 5.3125 14.699219 C 5.460938 14.699219 5.601562 14.613281 5.664062 14.476562 C 5.738281 14.289062 5.648438 14.0625 5.460938 13.988281 C 5.074219 13.824219 4.699219 13.625 4.351562 13.386719 C 4.285156 13.34375 4.210938 13.324219 4.140625 13.324219 Z M 4.140625 13.324219 "/>
</g>
</svg>
