<?xml version="1.0" encoding="UTF-8"?>
<svg xmlns="http://www.w3.org/2000/svg" xmlns:xlink="http://www.w3.org/1999/xlink" viewBox="0 0 480 480" width="480px" height="480px">
<g id="surface62330951">
<path style=" stroke:none;fill-rule:nonzero;fill:rgb(0.392157%,23.529412%,38.039216%);fill-opacity:1;" d="M 290.238281 319.160156 C 276.859375 305.96875 258.839844 298.570312 240.050781 298.570312 C 221.261719 298.570312 203.238281 305.96875 189.859375 319.160156 L 98.070312 410 L 40 410 L 160.800781 290.199219 C 181.910156 269.410156 210.359375 257.75 240 257.75 C 269.640625 257.75 298.078125 269.410156 319.199219 290.199219 L 440 410 L 381.929688 410 Z M 290.238281 319.160156 "/>
<path style=" stroke:none;fill-rule:nonzero;fill:rgb(0.392157%,23.529412%,38.039216%);fill-opacity:1;" d="M 381.929688 70 L 440 70 L 319.199219 189.800781 C 298.089844 210.589844 269.640625 222.25 240 222.25 C 210.359375 222.25 181.921875 210.589844 160.800781 189.800781 L 40 70 L 98.070312 70 L 189.859375 160.839844 C 203.238281 174.03125 221.261719 181.429688 240.050781 181.429688 C 258.839844 181.429688 276.859375 174.03125 290.238281 160.839844 Z M 381.929688 70 "/>
</g>
</svg>
