<?xml version="1.0" encoding="UTF-8"?>
<svg xmlns="http://www.w3.org/2000/svg" xmlns:xlink="http://www.w3.org/1999/xlink" viewBox="0 0 240 240" width="240px" height="240px">
<g id="surface60412253">
<path style=" stroke:none;fill-rule:nonzero;fill:rgb(0%,54.901963%,100%);fill-opacity:1;" d="M 145.121094 159.578125 C 138.429688 152.984375 129.421875 149.285156 120.023438 149.285156 C 110.628906 149.285156 101.621094 152.984375 94.929688 159.578125 L 49.035156 205 L 20 205 L 80.398438 145.101562 C 90.953125 134.703125 105.179688 128.875 120 128.875 C 134.820312 128.875 149.039062 134.703125 159.601562 145.101562 L 220 205 L 190.964844 205 Z M 145.121094 159.578125 "/>
<path style=" stroke:none;fill-rule:nonzero;fill:rgb(0%,54.901963%,100%);fill-opacity:1;" d="M 190.964844 35 L 220 35 L 159.601562 94.898438 C 149.046875 105.296875 134.820312 111.125 120 111.125 C 105.179688 111.125 90.960938 105.296875 80.398438 94.898438 L 20 35 L 49.035156 35 L 94.929688 80.421875 C 101.621094 87.015625 110.628906 90.714844 120.023438 90.714844 C 129.421875 90.714844 138.429688 87.015625 145.121094 80.421875 Z M 190.964844 35 "/>
</g>
</svg>
