<?xml version="1.0" encoding="UTF-8"?>
<svg xmlns="http://www.w3.org/2000/svg" xmlns:xlink="http://www.w3.org/1999/xlink" viewBox="0 0 96 96" width="96px" height="96px">
<g id="surface91671393">
<path style=" stroke:none;fill-rule:nonzero;fill:rgb(0%,54.901963%,100%);fill-opacity:1;" d="M 75.097656 56.382812 C 72.410156 54.828125 69.386719 54.378906 66.386719 54.277344 C 63.875 54.1875 60.121094 52.574219 60.121094 48.003906 C 60.121094 44.59375 62.882812 41.851562 66.390625 41.726562 C 69.386719 41.625 72.410156 41.175781 75.097656 39.621094 C 82.691406 35.238281 85.292969 25.53125 80.90625 17.941406 C 76.523438 10.347656 66.816406 7.746094 59.226562 12.128906 C 54.3125 14.964844 51.289062 20.207031 51.289062 25.875 C 51.289062 28.953125 52.382812 31.78125 53.78125 34.40625 C 54.953125 36.613281 55.546875 40.710938 51.523438 43.035156 C 48.527344 44.765625 44.789062 43.671875 42.921875 40.683594 C 41.347656 38.15625 39.441406 35.792969 36.777344 34.253906 C 29.183594 29.871094 19.476562 32.472656 15.09375 40.0625 C 10.710938 47.65625 13.3125 57.363281 20.902344 61.746094 C 25.816406 64.582031 31.867188 64.582031 36.777344 61.746094 C 39.441406 60.207031 41.34375 57.84375 42.921875 55.320312 C 44.214844 53.25 47.445312 50.613281 51.519531 52.964844 C 54.511719 54.695312 55.433594 58.480469 53.777344 61.597656 C 52.378906 64.222656 51.289062 67.050781 51.289062 70.125 C 51.289062 78.890625 58.394531 85.996094 67.160156 85.996094 C 75.925781 85.996094 83.03125 78.890625 83.03125 70.125 C 83.035156 64.457031 80.007812 59.214844 75.097656 56.382812 Z M 75.097656 56.382812 "/>
</g>
</svg>
