<?xml version="1.0" encoding="UTF-8"?>
<svg xmlns="http://www.w3.org/2000/svg" xmlns:xlink="http://www.w3.org/1999/xlink" viewBox="0 0 48 48" width="48px" height="48px">
<g id="surface91590766">
<path style=" stroke:none;fill-rule:nonzero;fill:rgb(0%,54.901963%,100%);fill-opacity:1;" d="M 37.550781 28.191406 C 36.203125 27.414062 34.691406 27.191406 33.195312 27.136719 C 31.9375 27.09375 30.0625 26.289062 30.0625 24 C 30.0625 22.296875 31.441406 20.925781 33.195312 20.863281 C 34.695312 20.8125 36.207031 20.585938 37.550781 19.8125 C 41.34375 17.617188 42.644531 12.765625 40.453125 8.96875 C 38.261719 5.175781 33.410156 3.871094 29.613281 6.066406 C 27.15625 7.484375 25.644531 10.101562 25.644531 12.9375 C 25.644531 14.476562 26.191406 15.890625 26.890625 17.203125 C 27.476562 18.308594 27.773438 20.355469 25.761719 21.519531 C 24.265625 22.382812 22.394531 21.835938 21.460938 20.339844 C 20.671875 19.078125 19.722656 17.898438 18.386719 17.128906 C 14.59375 14.933594 9.738281 16.234375 7.546875 20.03125 C 5.355469 23.828125 6.65625 28.683594 10.453125 30.871094 C 12.90625 32.289062 15.933594 32.289062 18.386719 30.871094 C 19.71875 30.105469 20.671875 28.921875 21.460938 27.660156 C 22.105469 26.625 23.722656 25.304688 25.761719 26.484375 C 27.253906 27.347656 27.71875 29.238281 26.886719 30.800781 C 26.191406 32.109375 25.644531 33.527344 25.644531 35.0625 C 25.644531 39.445312 29.195312 43 33.578125 43 C 37.964844 43 41.515625 39.445312 41.515625 35.0625 C 41.515625 32.226562 40.003906 29.609375 37.550781 28.191406 Z M 37.550781 28.191406 "/>
</g>
</svg>
