<?xml version="1.0" encoding="UTF-8"?>
<svg xmlns="http://www.w3.org/2000/svg" xmlns:xlink="http://www.w3.org/1999/xlink" viewBox="0 0 240 240" width="240px" height="240px">
<g id="surface91947439">
<path style=" stroke:none;fill-rule:nonzero;fill:rgb(0%,54.901963%,100%);fill-opacity:1;" d="M 187.746094 140.953125 C 181.023438 137.074219 173.464844 135.949219 165.96875 135.691406 C 159.683594 135.46875 150.304688 131.441406 150.304688 120.003906 C 150.304688 111.484375 157.210938 104.625 165.976562 104.320312 C 173.46875 104.058594 181.03125 102.933594 187.746094 99.054688 C 206.726562 88.09375 213.230469 63.828125 202.269531 44.851562 C 191.308594 25.871094 167.046875 19.363281 148.066406 30.324219 C 135.785156 37.414062 128.226562 50.515625 128.226562 64.691406 C 128.226562 72.378906 130.960938 79.453125 134.449219 86.015625 C 137.386719 91.535156 138.871094 101.78125 128.804688 107.589844 C 121.320312 111.914062 111.976562 109.175781 107.304688 101.703125 C 103.363281 95.394531 98.605469 89.484375 91.941406 85.636719 C 72.960938 74.675781 48.691406 81.179688 37.734375 100.160156 C 26.78125 119.140625 33.28125 143.410156 52.261719 154.363281 C 64.539062 161.453125 79.664062 161.453125 91.941406 154.363281 C 98.601562 150.519531 103.359375 144.609375 107.300781 138.304688 C 110.535156 133.125 118.613281 126.53125 128.800781 132.414062 C 136.273438 136.734375 138.585938 146.199219 134.441406 153.996094 C 130.949219 160.554688 128.21875 167.628906 128.21875 175.316406 C 128.21875 197.230469 145.984375 214.996094 167.898438 214.996094 C 189.816406 214.996094 207.578125 197.230469 207.578125 175.316406 C 207.585938 161.140625 200.019531 148.039062 187.746094 140.953125 Z M 187.746094 140.953125 "/>
</g>
</svg>
