<svg xmlns="http://www.w3.org/2000/svg" xmlns:xlink="http://www.w3.org/1999/xlink" zoomAndPan="magnify" preserveAspectRatio="xMidYMid meet" version="1.0" viewBox="84.35 155.26 222.67 80.25"><defs><g/></defs><path fill="#008cff" d="M 137.261719 194.757812 C 134.972656 193.4375 132.398438 193.054688 129.84375 192.964844 C 127.703125 192.890625 124.507812 191.519531 124.507812 187.621094 C 124.507812 184.71875 126.859375 182.382812 129.847656 182.28125 C 132.398438 182.191406 134.972656 181.808594 137.261719 180.484375 C 143.726562 176.753906 145.941406 168.488281 142.207031 162.023438 C 138.476562 155.558594 130.210938 153.339844 123.746094 157.074219 C 119.5625 159.488281 116.988281 163.953125 116.988281 168.78125 C 116.988281 171.398438 117.917969 173.808594 119.105469 176.042969 C 120.109375 177.925781 120.613281 181.414062 117.183594 183.394531 C 114.636719 184.867188 111.453125 183.933594 109.859375 181.386719 C 108.519531 179.238281 106.898438 177.226562 104.628906 175.914062 C 98.164062 172.183594 89.894531 174.398438 86.164062 180.863281 C 82.433594 187.328125 84.648438 195.59375 91.113281 199.324219 C 95.292969 201.742188 100.445312 201.742188 104.628906 199.324219 C 106.894531 198.015625 108.515625 196.003906 109.859375 193.855469 C 110.960938 192.089844 113.710938 189.84375 117.183594 191.847656 C 119.726562 193.320312 120.515625 196.542969 119.105469 199.199219 C 117.914062 201.433594 116.984375 203.84375 116.984375 206.464844 C 116.984375 213.925781 123.035156 219.980469 130.5 219.980469 C 137.964844 219.980469 144.015625 213.925781 144.015625 206.464844 C 144.019531 201.632812 141.441406 197.171875 137.261719 194.757812 Z M 137.261719 194.757812 " fill-opacity="1" fill-rule="nonzero"/><g fill="#000000" fill-opacity="1"><g transform="translate(157.620097, 217.499986)"><g><path d="M 53.328125 -41.75 C 53.328125 -36.101562 51.484375 -31.609375 47.796875 -28.265625 C 44.109375 -24.929688 39.097656 -23.265625 32.765625 -23.265625 L 15.21875 -23.265625 L 15.21875 0 L 7.125 0 L 7.125 -59.71875 L 32.265625 -59.71875 C 38.953125 -59.71875 44.132812 -58.148438 47.8125 -55.015625 C 51.488281 -51.878906 53.328125 -47.457031 53.328125 -41.75 Z M 45.1875 -41.671875 C 45.1875 -49.378906 40.550781 -53.234375 31.28125 -53.234375 L 15.21875 -53.234375 L 15.21875 -29.671875 L 31.625 -29.671875 C 40.664062 -29.671875 45.1875 -33.671875 45.1875 -41.671875 Z M 45.1875 -41.671875 "/></g></g></g><g fill="#000000" fill-opacity="1"><g transform="translate(215.515537, 217.499986)"><g><path d="M 17.546875 0.84375 C 12.941406 0.84375 9.476562 -0.367188 7.15625 -2.796875 C 4.84375 -5.222656 3.6875 -8.554688 3.6875 -12.796875 C 3.6875 -17.546875 5.25 -21.191406 8.375 -23.734375 C 11.5 -26.273438 16.535156 -27.632812 23.484375 -27.8125 L 33.78125 -27.984375 L 33.78125 -30.484375 C 33.78125 -34.210938 32.988281 -36.878906 31.40625 -38.484375 C 29.820312 -40.097656 27.335938 -40.90625 23.953125 -40.90625 C 20.535156 -40.90625 18.046875 -40.320312 16.484375 -39.15625 C 14.929688 -38 14 -36.148438 13.6875 -33.609375 L 5.71875 -34.328125 C 7.019531 -42.585938 13.15625 -46.71875 24.125 -46.71875 C 29.882812 -46.71875 34.21875 -45.394531 37.125 -42.75 C 40.039062 -40.101562 41.5 -36.28125 41.5 -31.28125 L 41.5 -11.53125 C 41.5 -9.269531 41.796875 -7.566406 42.390625 -6.421875 C 42.984375 -5.273438 44.113281 -4.703125 45.78125 -4.703125 C 46.507812 -4.703125 47.34375 -4.800781 48.28125 -5 L 48.28125 -0.25 C 46.363281 0.195312 44.398438 0.421875 42.390625 0.421875 C 39.566406 0.421875 37.507812 -0.316406 36.21875 -1.796875 C 34.9375 -3.285156 34.207031 -5.613281 34.03125 -8.78125 L 33.78125 -8.78125 C 31.832031 -5.269531 29.566406 -2.785156 26.984375 -1.328125 C 24.398438 0.117188 21.253906 0.84375 17.546875 0.84375 Z M 19.28125 -4.875 C 22.082031 -4.875 24.570312 -5.507812 26.75 -6.78125 C 28.925781 -8.050781 30.640625 -9.796875 31.890625 -12.015625 C 33.148438 -14.234375 33.78125 -16.515625 33.78125 -18.859375 L 33.78125 -22.640625 L 25.4375 -22.46875 C 21.84375 -22.40625 19.117188 -22.035156 17.265625 -21.359375 C 15.421875 -20.679688 14.003906 -19.632812 13.015625 -18.21875 C 12.023438 -16.8125 11.53125 -14.960938 11.53125 -12.671875 C 11.53125 -10.179688 12.203125 -8.257812 13.546875 -6.90625 C 14.890625 -5.550781 16.800781 -4.875 19.28125 -4.875 Z M 19.28125 -4.875 "/></g></g></g><g fill="#000000" fill-opacity="1"><g transform="translate(263.789997, 217.499986)"><g><path d="M 8.09375 18.015625 C 6 18.015625 4.25 17.859375 2.84375 17.546875 L 2.84375 11.828125 C 3.914062 11.992188 5.101562 12.078125 6.40625 12.078125 C 11.144531 12.078125 14.898438 8.585938 17.671875 1.609375 L 18.390625 -0.21875 L 0.21875 -45.859375 L 8.34375 -45.859375 L 18.015625 -20.515625 C 18.160156 -20.117188 18.332031 -19.644531 18.53125 -19.09375 C 18.726562 -18.539062 19.363281 -16.695312 20.4375 -13.5625 C 21.507812 -10.425781 22.085938 -8.675781 22.171875 -8.3125 L 25.140625 -16.65625 L 35.1875 -45.859375 L 43.234375 -45.859375 L 25.609375 0 C 23.710938 4.882812 21.941406 8.519531 20.296875 10.90625 C 18.660156 13.300781 16.847656 15.082031 14.859375 16.25 C 12.867188 17.425781 10.613281 18.015625 8.09375 18.015625 Z M 8.09375 18.015625 "/></g></g></g></svg>