<svg xmlns="http://www.w3.org/2000/svg" xmlns:xlink="http://www.w3.org/1999/xlink" zoomAndPan="magnify" preserveAspectRatio="xMidYMid meet" version="1.0" viewBox="51.35 136.27 286.5 108.79"><defs><g/></defs><path fill="#eb0029" d="M 133.582031 151.386719 L 51.347656 136.269531 L 94.625 245.054688 L 154.921875 171.664062 Z M 132.257812 158.046875 L 144.835938 169.992188 L 110.433594 176.214844 Z M 102.960938 174.972656 L 66.699219 144.925781 L 125.964844 155.820312 Z M 100.375 180.285156 L 94.464844 229.121094 L 62.582031 148.96875 Z M 105.847656 182.878906 L 143.945312 175.984375 L 100.246094 229.171875 Z M 105.847656 182.878906 " fill-opacity="1" fill-rule="nonzero"/><g fill="#000000" fill-opacity="1"><g transform="translate(172.296322, 223.071414)"><g><path d="M 34.453125 -67.703125 C 39.117188 -67.703125 43.117188 -66.867188 46.453125 -65.203125 C 49.785156 -63.535156 52.320312 -61.148438 54.0625 -58.046875 C 55.8125 -54.941406 56.6875 -51.289062 56.6875 -47.09375 C 56.6875 -42.894531 55.8125 -39.25 54.0625 -36.15625 C 52.320312 -33.070312 49.785156 -30.6875 46.453125 -29 C 43.117188 -27.320312 39.117188 -26.484375 34.453125 -26.484375 L 18.203125 -26.484375 L 18.203125 0 L 10.234375 0 L 10.234375 -67.703125 Z M 34.21875 -33.296875 C 43.632812 -33.296875 48.34375 -37.894531 48.34375 -47.09375 C 48.34375 -56.320312 43.632812 -60.9375 34.21875 -60.9375 L 18.203125 -60.9375 L 18.203125 -33.296875 Z M 34.21875 -33.296875 "/></g></g></g><g fill="#000000" fill-opacity="1"><g transform="translate(234.024133, 223.071414)"><g><path d="M 21.078125 0.96875 C 16.035156 0.96875 12.101562 -0.34375 9.28125 -2.96875 C 6.457031 -5.59375 5.046875 -9.34375 5.046875 -14.21875 C 5.046875 -17.238281 5.671875 -19.789062 6.921875 -21.875 C 8.171875 -23.957031 10.109375 -25.65625 12.734375 -26.96875 C 15.359375 -28.28125 18.785156 -29.296875 23.015625 -30.015625 C 26.722656 -30.628906 29.539062 -31.320312 31.46875 -32.09375 C 33.394531 -32.863281 34.691406 -33.726562 35.359375 -34.6875 C 36.023438 -35.644531 36.359375 -36.847656 36.359375 -38.296875 C 36.359375 -40.609375 35.5625 -42.382812 33.96875 -43.625 C 32.375 -44.863281 29.816406 -45.484375 26.296875 -45.484375 C 22.992188 -45.484375 20.160156 -44.84375 17.796875 -43.5625 C 15.441406 -42.28125 13.273438 -40.367188 11.296875 -37.828125 L 10.375 -37.828125 L 6.671875 -43.0625 C 8.828125 -45.8125 11.570312 -47.992188 14.90625 -49.609375 C 18.238281 -51.234375 22.035156 -52.046875 26.296875 -52.046875 C 32.316406 -52.046875 36.753906 -50.726562 39.609375 -48.09375 C 42.472656 -45.457031 43.90625 -41.804688 43.90625 -37.140625 L 43.90625 -10.046875 C 43.90625 -7.203125 45.109375 -5.78125 47.515625 -5.78125 C 48.316406 -5.78125 49.085938 -5.921875 49.828125 -6.203125 L 50.484375 -6.015625 L 51.359375 -0.78125 C 50.804688 -0.414062 50.070312 -0.132812 49.15625 0.0625 C 48.25 0.269531 47.316406 0.375 46.359375 0.375 C 43.546875 0.375 41.421875 -0.238281 39.984375 -1.46875 C 38.546875 -2.707031 37.628906 -4.535156 37.234375 -6.953125 L 36.265625 -7.046875 C 34.804688 -4.359375 32.84375 -2.347656 30.375 -1.015625 C 27.90625 0.304688 24.804688 0.96875 21.078125 0.96875 Z M 22.734375 -5.046875 C 25.578125 -5.046875 28.039062 -5.703125 30.125 -7.015625 C 32.207031 -8.328125 33.800781 -10.171875 34.90625 -12.546875 C 36.019531 -14.921875 36.578125 -17.671875 36.578125 -20.796875 L 36.578125 -27.28125 L 35.703125 -27.46875 C 34.554688 -26.664062 33.164062 -25.992188 31.53125 -25.453125 C 29.894531 -24.910156 27.613281 -24.421875 24.6875 -23.984375 C 21.71875 -23.585938 19.359375 -22.972656 17.609375 -22.140625 C 15.867188 -21.304688 14.628906 -20.25 13.890625 -18.96875 C 13.148438 -17.6875 12.78125 -16.101562 12.78125 -14.21875 C 12.78125 -11.21875 13.660156 -8.9375 15.421875 -7.375 C 17.179688 -5.820312 19.617188 -5.046875 22.734375 -5.046875 Z M 22.734375 -5.046875 "/></g></g></g><g fill="#000000" fill-opacity="1"><g transform="translate(286.860916, 223.071414)"><g><path d="M 43.25 -51.078125 L 50.984375 -51.078125 L 28.15625 8.015625 C 26.863281 11.285156 25.410156 13.914062 23.796875 15.90625 C 22.191406 17.894531 20.289062 19.351562 18.09375 20.28125 C 15.90625 21.207031 13.285156 21.671875 10.234375 21.671875 C 8.503906 21.671875 6.890625 21.523438 5.390625 21.234375 C 3.898438 20.941406 2.613281 20.53125 1.53125 20 L 2.921875 14.03125 L 3.75 13.75 C 4.488281 14.125 5.414062 14.441406 6.53125 14.703125 C 7.644531 14.960938 8.785156 15.09375 9.953125 15.09375 C 12.023438 15.09375 13.738281 14.816406 15.09375 14.265625 C 16.457031 13.710938 17.625 12.796875 18.59375 11.515625 C 19.5625 10.234375 20.460938 8.460938 21.296875 6.203125 L 23.109375 1.203125 L 2.59375 -51.078125 L 10.75 -51.078125 L 26.8125 -9.40625 L 27.6875 -9.40625 Z M 43.25 -51.078125 "/></g></g></g></svg>