<?xml version="1.0" encoding="UTF-8"?>
<svg xmlns="http://www.w3.org/2000/svg" xmlns:xlink="http://www.w3.org/1999/xlink" viewBox="0 0 144 144" width="144px" height="144px">
<g id="surface91590771">
<path style=" stroke:none;fill-rule:nonzero;fill:rgb(0%,54.901963%,100%);fill-opacity:1;" d="M 112.648438 84.574219 C 108.613281 82.246094 104.078125 81.570312 99.582031 81.414062 C 95.8125 81.28125 90.183594 78.863281 90.183594 72.003906 C 90.183594 66.890625 94.324219 62.773438 99.585938 62.59375 C 104.082031 62.4375 108.617188 61.761719 112.648438 59.433594 C 124.035156 52.855469 127.9375 38.296875 121.363281 26.910156 C 114.785156 15.523438 100.226562 11.617188 88.839844 18.195312 C 81.472656 22.449219 76.933594 30.308594 76.933594 38.8125 C 76.933594 43.429688 78.574219 47.671875 80.671875 51.609375 C 82.429688 54.921875 83.320312 61.066406 77.28125 64.554688 C 72.792969 67.148438 67.183594 65.503906 64.382812 61.023438 C 62.019531 57.238281 59.164062 53.691406 55.164062 51.382812 C 43.777344 44.804688 29.214844 48.707031 22.640625 60.097656 C 16.066406 71.484375 19.96875 86.046875 31.355469 92.617188 C 38.722656 96.871094 47.800781 96.871094 55.164062 92.617188 C 59.160156 90.3125 62.015625 86.765625 64.378906 82.984375 C 66.320312 79.875 71.167969 75.917969 77.28125 79.449219 C 81.765625 82.039062 83.152344 87.71875 80.664062 92.398438 C 78.570312 96.332031 76.933594 100.578125 76.933594 105.1875 C 76.933594 118.339844 87.589844 128.996094 100.738281 128.996094 C 113.890625 128.996094 124.546875 118.339844 124.546875 105.1875 C 124.550781 96.683594 120.011719 88.824219 112.648438 84.574219 Z M 112.648438 84.574219 "/>
</g>
</svg>
