<?xml version="1.0" encoding="UTF-8"?>
<svg xmlns="http://www.w3.org/2000/svg" xmlns:xlink="http://www.w3.org/1999/xlink" viewBox="0 0 960 960" width="960px" height="960px">
<g id="surface65744151">
<path style=" stroke:none;fill-rule:nonzero;fill:rgb(6.666667%,23.921569%,37.64706%);fill-opacity:1;" d="M 580.480469 638.320312 C 553.71875 611.941406 517.679688 597.140625 480.101562 597.140625 C 442.519531 597.140625 406.480469 611.941406 379.71875 638.320312 L 196.140625 820 L 80 820 L 321.601562 580.398438 C 363.820312 538.820312 420.71875 515.5 480 515.5 C 539.28125 515.5 596.160156 538.820312 638.398438 580.398438 L 880 820 L 763.859375 820 Z M 580.480469 638.320312 "/>
<path style=" stroke:none;fill-rule:nonzero;fill:rgb(6.666667%,23.921569%,37.64706%);fill-opacity:1;" d="M 763.859375 140 L 880 140 L 638.398438 379.601562 C 596.179688 421.179688 539.28125 444.5 480 444.5 C 420.71875 444.5 363.839844 421.179688 321.601562 379.601562 L 80 140 L 196.140625 140 L 379.71875 321.679688 C 406.480469 348.058594 442.519531 362.859375 480.101562 362.859375 C 517.679688 362.859375 553.71875 348.058594 580.480469 321.679688 Z M 763.859375 140 "/>
</g>
</svg>
