<?xml version="1.0" encoding="UTF-8"?>
<svg xmlns="http://www.w3.org/2000/svg" xmlns:xlink="http://www.w3.org/1999/xlink" viewBox="0 0 48 48" width="48px" height="48px">
<g id="surface91333111">
<path style=" stroke:none;fill-rule:nonzero;fill:rgb(0%,54.901963%,100%);fill-opacity:1;" d="M 29.023438 31.914062 C 27.6875 30.597656 25.882812 29.855469 24.003906 29.855469 C 22.125 29.855469 20.324219 30.597656 18.984375 31.914062 L 9.808594 41 L 4 41 L 16.078125 29.019531 C 18.191406 26.941406 21.035156 25.773438 24 25.773438 C 26.964844 25.773438 29.808594 26.941406 31.921875 29.019531 L 44 41 L 38.191406 41 Z M 29.023438 31.914062 "/>
<path style=" stroke:none;fill-rule:nonzero;fill:rgb(0%,54.901963%,100%);fill-opacity:1;" d="M 38.191406 7 L 44 7 L 31.921875 18.980469 C 29.808594 21.058594 26.964844 22.226562 24 22.226562 C 21.035156 22.226562 18.191406 21.058594 16.078125 18.980469 L 4 7 L 9.808594 7 L 18.984375 16.085938 C 20.324219 17.402344 22.125 18.144531 24.003906 18.144531 C 25.882812 18.144531 27.6875 17.402344 29.023438 16.085938 Z M 38.191406 7 "/>
</g>
</svg>
